<svg width="64" height="64" viewBox="0 0 64 64" fill="none" xmlns="http://www.w3.org/2000/svg">
<path d="M16.6031 50.6095L20.0087 50.6095L20.0087 47.0853L16.6031 47.0853L16.6031 50.6095ZM44.9558 21.7008C44.9558 21.4624 44.7691 21.2692 44.5387 21.2692L40.7849 21.2692C40.5545 21.2692 40.3678 21.4624 40.3678 21.7008C40.3678 21.9392 40.5545 22.1324 40.7849 22.1324L44.1216 22.1324L44.1216 25.5854C44.1216 25.8238 44.3084 26.017 44.5387 26.017C44.7691 26.017 44.9558 25.8238 44.9558 25.5854L44.9558 21.7008ZM18.6008 49.1526L44.8337 22.006L44.2438 21.3956L18.011 48.5422L18.6008 49.1526Z" fill="#2D2D2D"/>
</svg>
